HIERARCHY
ROOT Hips
{
	OFFSET 0.000000 0.000000 0.000000
	CHANNELS 6 Xposition Yposition Zposition Zrotation Yrotation Xrotation 
	JOINT Spine1
	{
		OFFSET -0.013727 5.003762 -0.053727
		CHANNELS 3 Zrotation Yrotation Xrotation
		JOINT Spine2
		{
			OFFSET -0.000000 7.125303 -0.029825
			CHANNELS 3 Zrotation Yrotation Xrotation
			JOINT Chest
			{
				OFFSET -0.000001 7.550062 -0.815971
				CHANNELS 3 Zrotation Yrotation Xrotation
				JOINT Neck1
				{
					OFFSET -0.181677 26.311296 -0.553349
					CHANNELS 3 Zrotation Yrotation Xrotation
					JOINT Neck2
					{
						OFFSET -0.000003 7.709398 2.302586
						CHANNELS 3 Zrotation Yrotation Xrotation
						JOINT Head
						{
							OFFSET -0.000005 6.128912 1.953709
							CHANNELS 3 Zrotation Yrotation Xrotation
							JOINT HeadEnd
							{
								OFFSET 0.003598 16.065401 -1.835379
								CHANNELS 3 Zrotation Yrotation Xrotation
								End Site
								{
									OFFSET 0.000000 0.000000 0.000000
								}
							}
							JOINT Jaw
							{
								OFFSET 0.002637 0.475592 3.094941
								CHANNELS 3 Zrotation Yrotation Xrotation
								End Site
								{
									OFFSET 0.000000 0.000000 0.000000
								}
							}
							JOINT LeftEye
							{
								OFFSET 3.206380 5.380208 7.586883
								CHANNELS 3 Zrotation Yrotation Xrotation
								End Site
								{
									OFFSET 0.000000 0.000000 0.000000
								}
							}
							JOINT RightEye
							{
								OFFSET -3.222440 5.361866 7.558233
								CHANNELS 3 Zrotation Yrotation Xrotation
								End Site
								{
									OFFSET 0.000000 0.000000 0.000000
								}
							}
						}
					}
				}
				JOINT LeftShoulder
				{
					OFFSET 1.621652 23.237165 5.113413
					CHANNELS 3 Zrotation Yrotation Xrotation
					JOINT LeftArm
					{
						OFFSET 14.919845 -0.000001 -5.502326
						CHANNELS 3 Zrotation Yrotation Xrotation
						JOINT LeftForeArm
						{
							OFFSET 28.739309 0.000002 -0.002588
							CHANNELS 3 Zrotation Yrotation Xrotation
							JOINT LeftHand
							{
								OFFSET 27.093979 -0.000003 0.002608
								CHANNELS 3 Zrotation Yrotation Xrotation
								JOINT LeftHandThumb1
								{
									OFFSET 2.276480 -1.392045 3.191413
									CHANNELS 3 Zrotation Yrotation Xrotation
									JOINT LeftHandThumb2
									{
										OFFSET 4.012841 -1.828126 1.641655
										CHANNELS 3 Zrotation Yrotation Xrotation
										JOINT LeftHandThumb3
										{
											OFFSET 2.798516 -0.000000 -0.000004
											CHANNELS 3 Zrotation Yrotation Xrotation
											JOINT LeftHandThumbEnd
											{
												OFFSET 3.180791 -0.000002 0.000003
												CHANNELS 3 Zrotation Yrotation Xrotation
												End Site
												{
													OFFSET 0.000000 0.000000 0.000000
												}
											}
										}
									}
								}
								JOINT LeftHandIndex1
								{
									OFFSET 3.247554 -0.531998 2.296169
									CHANNELS 3 Zrotation Yrotation Xrotation
									JOINT LeftHandIndex2
									{
										OFFSET 6.364580 0.012062 0.178599
										CHANNELS 3 Zrotation Yrotation Xrotation
										JOINT LeftHandIndex3
										{
											OFFSET 3.662366 0.000001 -0.000000
											CHANNELS 3 Zrotation Yrotation Xrotation
											JOINT LeftHandIndex4
											{
												OFFSET 2.329243 0.000003 0.000004
												CHANNELS 3 Zrotation Yrotation Xrotation
												JOINT LeftHandIndexEnd
												{
													OFFSET 2.759619 -0.180539 -0.113024
													CHANNELS 3 Zrotation Yrotation Xrotation
													End Site
													{
														OFFSET 0.000000 0.000000 0.000000
													}
												}
											}
										}
									}
								}
								JOINT LeftHandMiddle1
								{
									OFFSET 3.163499 0.240982 1.000332
									CHANNELS 3 Zrotation Yrotation Xrotation
									JOINT LeftHandMiddle2
									{
										OFFSET 6.190778 -0.259276 -1.002549
										CHANNELS 3 Zrotation Yrotation Xrotation
										JOINT LeftHandMiddle3
										{
											OFFSET 4.356523 -0.000006 0.000000
											CHANNELS 3 Zrotation Yrotation Xrotation
											JOINT LeftHandMiddle4
											{
												OFFSET 2.996875 -0.000006 0.000000
												CHANNELS 3 Zrotation Yrotation Xrotation
												JOINT LeftHandMiddleEnd
												{
													OFFSET 2.304294 -0.294572 -0.031739
													CHANNELS 3 Zrotation Yrotation Xrotation
													End Site
													{
														OFFSET 0.000000 0.000000 0.000000
													}
												}
											}
										}
									}
								}
								JOINT LeftHandRing1
								{
									OFFSET 2.882642 -0.053650 -0.322543
									CHANNELS 3 Zrotation Yrotation Xrotation
									JOINT LeftHandRing2
									{
										OFFSET 5.854543 -0.486203 -1.373841
										CHANNELS 3 Zrotation Yrotation Xrotation
										JOINT LeftHandRing3
										{
											OFFSET 4.350581 0.000000 0.000003
											CHANNELS 3 Zrotation Yrotation Xrotation
											JOINT LeftHandRing4
											{
												OFFSET 2.651325 0.000008 0.000004
												CHANNELS 3 Zrotation Yrotation Xrotation
												JOINT LeftHandRingEnd
												{
													OFFSET 1.936111 0.077686 -0.000070
													CHANNELS 3 Zrotation Yrotation Xrotation
													End Site
													{
														OFFSET 0.000000 0.000000 0.000000
													}
												}
											}
										}
									}
								}
								JOINT LeftHandPinky1
								{
									OFFSET 2.865499 -0.310004 -1.600378
									CHANNELS 3 Zrotation Yrotation Xrotation
									JOINT LeftHandPinky2
									{
										OFFSET 5.087852 -1.331142 -1.771231
										CHANNELS 3 Zrotation Yrotation Xrotation
										JOINT LeftHandPinky3
										{
											OFFSET 3.070975 0.000003 0.000001
											CHANNELS 3 Zrotation Yrotation Xrotation
											JOINT LeftHandPinky4
											{
												OFFSET 1.549667 0.000000 0.000001
												CHANNELS 3 Zrotation Yrotation Xrotation
												JOINT LeftHandPinkyEnd
												{
													OFFSET 1.944894 -0.157802 0.057219
													CHANNELS 3 Zrotation Yrotation Xrotation
													End Site
													{
														OFFSET 0.000000 0.000000 0.000000
													}
												}
											}
										}
									}
								}
							}
						}
					}
				}
				JOINT RightShoulder
				{
					OFFSET -1.380118 23.180309 5.214158
					CHANNELS 3 Zrotation Yrotation Xrotation
					JOINT RightArm
					{
						OFFSET -15.037197 0.000010 -5.545604
						CHANNELS 3 Zrotation Yrotation Xrotation
						JOINT RightForeArm
						{
							OFFSET -28.736639 0.000003 -0.002597
							CHANNELS 3 Zrotation Yrotation Xrotation
							JOINT RightHand
							{
								OFFSET -27.133617 -0.000001 0.002613
								CHANNELS 3 Zrotation Yrotation Xrotation
								JOINT RightHandThumb1
								{
									OFFSET -2.274036 -1.383990 3.163128
									CHANNELS 3 Zrotation Yrotation Xrotation
									JOINT RightHandThumb2
									{
										OFFSET -4.011430 -1.827467 1.640914
										CHANNELS 3 Zrotation Yrotation Xrotation
										JOINT RightHandThumb3
										{
											OFFSET -2.794933 -0.000004 -0.000003
											CHANNELS 3 Zrotation Yrotation Xrotation
											JOINT RightHandThumbEnd
											{
												OFFSET -3.183855 0.000003 0.000000
												CHANNELS 3 Zrotation Yrotation Xrotation
												End Site
												{
													OFFSET 0.000000 0.000000 0.000000
												}
											}
										}
									}
								}
								JOINT RightHandIndex1
								{
									OFFSET -3.253270 -0.520059 2.282866
									CHANNELS 3 Zrotation Yrotation Xrotation
									JOINT RightHandIndex2
									{
										OFFSET -6.341917 0.012472 0.178265
										CHANNELS 3 Zrotation Yrotation Xrotation
										JOINT RightHandIndex3
										{
											OFFSET -3.654874 -0.000009 -0.000001
											CHANNELS 3 Zrotation Yrotation Xrotation
											JOINT RightHandIndex4
											{
												OFFSET -2.327587 0.000001 0.000001
												CHANNELS 3 Zrotation Yrotation Xrotation
												JOINT RightHandIndexEnd
												{
													OFFSET -2.761789 -0.180658 -0.113078
													CHANNELS 3 Zrotation Yrotation Xrotation
													End Site
													{
														OFFSET 0.000000 0.000000 0.000000
													}
												}
											}
										}
									}
								}
								JOINT RightHandMiddle1
								{
									OFFSET -3.168106 0.246593 1.001030
									CHANNELS 3 Zrotation Yrotation Xrotation
									JOINT RightHandMiddle2
									{
										OFFSET -6.180830 -0.258836 -1.000896
										CHANNELS 3 Zrotation Yrotation Xrotation
										JOINT RightHandMiddle3
										{
											OFFSET -4.348905 0.000000 -0.000000
											CHANNELS 3 Zrotation Yrotation Xrotation
											JOINT RightHandMiddle4
											{
												OFFSET -3.000243 -0.000003 -0.000002
												CHANNELS 3 Zrotation Yrotation Xrotation
												JOINT RightHandMiddleEnd
												{
													OFFSET -2.302518 -0.294371 -0.031706
													CHANNELS 3 Zrotation Yrotation Xrotation
													End Site
													{
														OFFSET 0.000000 0.000000 0.000000
													}
												}
											}
										}
									}
								}
								JOINT RightHandRing1
								{
									OFFSET -2.885694 -0.067952 -0.308858
									CHANNELS 3 Zrotation Yrotation Xrotation
									JOINT RightHandRing2
									{
										OFFSET -5.854195 -0.486133 -1.373732
										CHANNELS 3 Zrotation Yrotation Xrotation
										JOINT RightHandRing3
										{
											OFFSET -4.338815 -0.000002 -0.000000
											CHANNELS 3 Zrotation Yrotation Xrotation
											JOINT RightHandRing4
											{
												OFFSET -2.654905 -0.000005 0.000004
												CHANNELS 3 Zrotation Yrotation Xrotation
												JOINT RightHandRingEnd
												{
													OFFSET -1.933570 0.077524 -0.000052
													CHANNELS 3 Zrotation Yrotation Xrotation
													End Site
													{
														OFFSET 0.000000 0.000000 0.000000
													}
												}
											}
										}
									}
								}
								JOINT RightHandPinky1
								{
									OFFSET -2.866429 -0.342799 -1.584145
									CHANNELS 3 Zrotation Yrotation Xrotation
									JOINT RightHandPinky2
									{
										OFFSET -5.091370 -1.332054 -1.772385
										CHANNELS 3 Zrotation Yrotation Xrotation
										JOINT RightHandPinky3
										{
											OFFSET -3.062666 -0.000007 0.000000
											CHANNELS 3 Zrotation Yrotation Xrotation
											JOINT RightHandPinky4
											{
												OFFSET -1.546527 0.000005 -0.000002
												CHANNELS 3 Zrotation Yrotation Xrotation
												JOINT RightHandPinkyEnd
												{
													OFFSET -1.945122 -0.157721 0.057211
													CHANNELS 3 Zrotation Yrotation Xrotation
													End Site
													{
														OFFSET 0.000000 0.000000 0.000000
													}
												}
											}
										}
									}
								}
							}
						}
					}
				}
			}
		}
	}
	JOINT LeftLeg
	{
		OFFSET 10.043214 -8.434526 2.595655
		CHANNELS 3 Zrotation Yrotation Xrotation
		JOINT LeftShin
		{
			OFFSET -0.000001 -43.221752 -0.802913
			CHANNELS 3 Zrotation Yrotation Xrotation
			JOINT LeftFoot
			{
				OFFSET 0.000001 -42.155094 -3.481524
				CHANNELS 3 Zrotation Yrotation Xrotation
				JOINT LeftToeBase
				{
					OFFSET -0.000000 -5.059475 13.231529
					CHANNELS 3 Zrotation Yrotation Xrotation
					JOINT LeftToeEnd
					{
						OFFSET -0.009607 -1.647615 6.513017
						CHANNELS 3 Zrotation Yrotation Xrotation
						End Site
						{
							OFFSET 0.000000 0.000000 0.000000
						}
					}
				}
			}
		}
	}
	JOINT RightLeg
	{
		OFFSET -10.047277 -8.295259 2.620317
		CHANNELS 3 Zrotation Yrotation Xrotation
		JOINT RightShin
		{
			OFFSET 0.000001 -43.362209 -0.805556
			CHANNELS 3 Zrotation Yrotation Xrotation
			JOINT RightFoot
			{
				OFFSET 0.000002 -42.117393 -3.478398
				CHANNELS 3 Zrotation Yrotation Xrotation
				JOINT RightToeBase
				{
					OFFSET -0.000001 -5.079609 13.284196
					CHANNELS 3 Zrotation Yrotation Xrotation
					JOINT RightToeEnd
					{
						OFFSET 0.009532 -1.634383 6.460591
						CHANNELS 3 Zrotation Yrotation Xrotation
						End Site
						{
							OFFSET 0.000000 0.000000 0.000000
						}
					}
				}
			}
		}
	}
}
MOTION
Frames: 4
Frame Time: 0.033333
4.459154 94.536606 -1.980329 0.297317 0.017493 3.557136 -0.567215 -0.010466 1.068346 -0.651412 -1.131945 -3.933679 -1.415371 -2.650387 7.475022 -4.853494 6.157977 11.145792 2.370938 10.785079 -3.462108 -0.474539 11.343411 -12.784318 0.000077 -0.000024 0.000006 -0.012760 -0.026087 -0.002856 0.695020 -3.768070 -10.623267 -0.728091 3.716239 -10.571096 8.579108 -11.237568 3.768041 -26.553396 -26.966047 -47.816563 177.137711 -48.716843 -177.845856 3.085529 -0.299432 -4.252047 -5.882099 9.861279 0.702590 -10.936858 -0.360576 7.156197 0.000001 8.774815 -0.000001 -16.456465 17.811079 5.907307 -1.844031 2.498503 -2.507277 -10.163589 4.678938 4.621102 -20.975994 -0.000005 -0.000000 -21.226254 2.451692 -3.593995 0.000000 -0.000007 -0.000000 -1.362679 2.240798 -0.746323 -21.334887 0.584907 3.008318 -13.821197 -0.000003 0.000001 -23.887129 -0.249079 -0.839482 -60.287113 2.845816 -1.464594 -0.294023 1.679686 0.833256 -14.218190 0.093214 1.300578 -34.211998 -0.287564 0.967168 -20.033180 0.964535 1.212842 0.000001 0.000001 -0.000000 -3.440386 0.788233 0.501655 -15.928171 -3.167307 2.999705 -6.338817 -0.000002 0.000001 -18.123411 3.648178 -4.905661 -0.000003 -0.000000 -0.000002 2.384438 -0.903421 10.850097 49.318729 77.047531 9.102999 -175.611603 39.396645 -177.280365 -12.989291 -5.063190 -10.840724 2.243540 -5.255032 -3.180157 14.282875 -0.826593 6.952495 -0.000002 -12.690592 0.000000 15.750644 -18.042896 2.757015 1.665664 -1.955920 -2.878296 4.727790 -4.170582 4.993919 11.020513 0.000005 -0.000001 12.109033 -3.735710 -2.866780 -0.000000 0.000001 -0.000000 1.291983 -1.928547 -1.498088 14.800109 0.567468 3.865603 14.242551 -1.341732 -6.660649 19.631937 0.143928 -0.648243 49.816288 -0.603495 -6.294274 0.353030 -1.511149 -0.031939 20.222771 3.684308 2.316628 18.787243 0.000007 0.000000 10.751610 -0.479867 1.397904 -0.000000 0.000000 0.000000 3.273802 0.305948 -0.580112 21.486794 11.830366 2.266131 8.162916 0.000002 0.000001 18.399050 -3.798979 -4.940566 0.000003 -0.000002 -0.000001 14.128630 13.616216 -22.760124 -0.317893 -0.710132 32.623764 -16.715391 -5.452919 -7.149535 1.627453 -1.647899 -0.036508 0.000000 0.000000 0.000002 -10.574412 -4.605298 -16.863289 0.084087 0.677720 35.808418 10.567365 -3.592372 -20.283468 -1.465065 1.003576 0.305448 -0.000000 0.000000 -0.000001 
4.069255 94.079170 -1.591498 0.665383 -0.135173 3.638484 -0.846817 -0.073154 1.332989 -0.698999 -0.937985 -3.752494 -1.687660 -2.858005 7.621180 -4.368183 5.530107 9.829113 2.238299 10.395690 -3.422296 -0.379984 11.247961 -12.963205 0.000077 -0.000022 0.000006 0.013459 -0.051919 0.023216 0.736977 -3.806217 -10.650992 -0.718092 3.690676 -10.577808 8.220065 -11.693323 3.797245 -24.608109 -26.862024 -48.972557 177.930145 -49.465809 -178.733734 4.094832 -0.879853 -3.902253 -5.882102 9.861280 0.702589 -10.936859 -0.360575 7.156196 0.000001 8.774814 -0.000003 -16.321833 17.788465 5.903438 -1.844031 2.498503 -2.507275 -10.163591 4.678940 4.621103 -20.975994 -0.000003 0.000001 -21.226254 2.451693 -3.593995 0.000000 -0.000007 -0.000000 -1.362680 2.240798 -0.746322 -21.334894 0.584910 3.008322 -13.821197 -0.000002 0.000001 -23.887131 -0.249079 -0.839482 -60.207485 2.619035 -1.637492 -0.294027 1.679686 0.833256 -14.218192 0.093214 1.300577 -34.212002 -0.287563 0.967168 -20.033180 0.964535 1.212841 0.000000 0.000001 -0.000000 -3.440385 0.788233 0.501655 -15.928169 -3.167306 2.999702 -6.338816 -0.000002 0.000001 -18.123413 3.648177 -4.905663 -0.000004 -0.000001 -0.000002 2.529971 -1.181838 10.696024 47.685272 76.255836 6.390885 -176.620117 39.155167 -178.069901 -12.961652 -5.001153 -9.990917 2.243537 -5.255032 -3.180155 14.282877 -0.826593 6.952497 -0.000000 -12.690590 0.000000 15.563014 -17.891518 2.980862 1.665666 -1.955920 -2.878297 4.727795 -4.170585 4.993919 11.020513 0.000003 -0.000001 12.109030 -3.735709 -2.866780 0.000000 -0.000000 0.000000 1.291984 -1.928547 -1.498088 14.800113 0.567467 3.865603 14.242551 -1.341734 -6.660648 19.631939 0.143927 -0.648243 49.868732 -0.689185 -6.315792 0.353028 -1.511149 -0.031941 20.222765 3.684309 2.316629 18.787245 0.000004 0.000002 10.751610 -0.479868 1.397905 -0.000000 -0.000001 0.000000 3.273804 0.305948 -0.580111 21.486790 11.830365 2.266131 8.162917 -0.000001 -0.000000 18.399054 -3.798980 -4.940567 0.000004 -0.000002 -0.000001 14.135118 13.170710 -23.144878 -0.353984 -0.694149 33.934826 -17.050278 -5.630266 -8.098282 1.598953 -1.667483 0.187960 0.000000 -0.000000 0.000002 -10.839160 -6.602815 -19.919165 0.232833 0.646787 41.791096 9.633557 -3.224953 -19.289707 -1.460860 0.968062 -0.801293 0.000000 0.000000 -0.000001 
3.434183 93.636116 -1.199586 1.083368 -0.662355 3.427971 -1.056890 -0.173223 1.540022 -0.780026 -0.970338 -3.708117 -2.066209 -3.002682 7.935866 -3.833671 4.908700 8.604945 2.129591 10.291340 -3.391541 -0.259547 10.970627 -13.521615 0.000077 -0.000023 0.000006 0.018424 -0.039723 0.040041 0.746508 -3.780376 -10.650099 -0.718504 3.694113 -10.578135 7.205823 -12.315462 4.115302 -22.354715 -26.384480 -50.404831 178.584595 -50.515953 -179.676804 4.683385 -1.607940 -3.227522 -5.882102 9.861278 0.702589 -10.936858 -0.360576 7.156196 0.000001 8.774813 -0.000002 -16.503891 17.804897 5.696440 -1.844030 2.498503 -2.507277 -10.163590 4.678937 4.621102 -20.975992 -0.000005 0.000001 -21.226254 2.451692 -3.593993 0.000000 -0.000007 -0.000000 -1.362677 2.240797 -0.746322 -21.334892 0.584907 3.008321 -13.821197 -0.000005 0.000002 -23.887133 -0.249080 -0.839480 -60.043888 2.503150 -1.626263 -0.294026 1.679685 0.833255 -14.218194 0.093213 1.300579 -34.211998 -0.287565 0.967169 -20.033176 0.964533 1.212842 0.000000 0.000002 0.000000 -3.440385 0.788233 0.501654 -15.928171 -3.167308 2.999703 -6.338817 -0.000002 0.000000 -18.123413 3.648173 -4.905661 -0.000004 -0.000002 -0.000003 2.926125 -1.559142 10.678022 45.587624 75.525772 2.692386 -177.824570 39.630478 -178.850113 -12.619152 -5.371297 -9.915770 2.243538 -5.255032 -3.180155 14.282877 -0.826593 6.952495 -0.000002 -12.690591 -0.000001 15.462552 -17.855602 3.039859 1.665665 -1.955919 -2.878296 4.727796 -4.170582 4.993918 11.020513 0.000002 -0.000001 12.109030 -3.735709 -2.866779 0.000000 -0.000000 0.000001 1.291984 -1.928548 -1.498085 14.800113 0.567468 3.865603 14.242553 -1.341735 -6.660648 19.631939 0.143923 -0.648243 49.868015 -0.703543 -6.421725 0.353029 -1.511149 -0.031941 20.222767 3.684307 2.316629 18.787247 0.000003 0.000000 10.751610 -0.479867 1.397904 -0.000001 0.000000 0.000000 3.273804 0.305947 -0.580111 21.486790 11.830363 2.266134 8.162918 -0.000000 0.000000 18.399052 -3.798979 -4.940567 0.000003 -0.000001 -0.000001 14.342400 13.099730 -22.996561 -0.342787 -0.622317 34.991482 -17.670052 -5.865783 -8.576373 1.586551 -1.620670 0.434102 0.000000 -0.000000 0.000002 -11.056451 -8.625135 -23.490576 0.329284 0.496161 47.281017 8.375970 -3.339184 -18.307280 -1.453480 0.998253 -0.854502 -0.000000 0.000000 -0.000001 
2.603379 93.251999 -0.731616 1.438329 -1.677441 3.032255 -1.074164 -0.348844 1.383718 -0.797028 -1.094532 -3.766645 -2.588837 -3.254004 8.149199 -3.353765 4.506307 7.786983 2.061280 10.211397 -3.359371 -0.058595 10.564584 -13.844992 0.000077 -0.000022 0.000006 0.011321 -0.000642 0.042919 0.755356 -3.716248 -10.643102 -0.740481 3.713962 -10.569551 5.131337 -12.848904 4.600640 -19.970146 -25.697069 -51.350292 179.324066 -52.082336 179.540527 5.245312 -2.418734 -2.273947 -5.882102 9.861279 0.702588 -10.936858 -0.360576 7.156196 0.000002 8.774813 -0.000001 -16.612610 17.824993 5.526803 -1.844032 2.498502 -2.507277 -10.163589 4.678940 4.621102 -20.975996 -0.000004 -0.000000 -21.226254 2.451690 -3.593995 0.000000 -0.000006 -0.000000 -1.362679 2.240797 -0.746324 -21.334890 0.584908 3.008320 -13.821195 -0.000003 0.000002 -23.887131 -0.249080 -0.839483 -59.920551 2.481123 -1.655292 -0.294025 1.679686 0.833255 -14.218194 0.093215 1.300577 -34.211998 -0.287564 0.967166 -20.033175 0.964535 1.212839 -0.000000 -0.000001 0.000000 -3.440384 0.788232 0.501653 -15.928164 -3.167305 2.999702 -6.338816 -0.000000 0.000000 -18.123413 3.648175 -4.905662 -0.000004 -0.000000 -0.000002 3.248382 -1.799006 10.528827 43.583660 74.551231 -0.748409 -179.028870 41.217300 -179.547729 -12.093821 -5.662180 -10.449964 2.243541 -5.255033 -3.180155 14.282877 -0.826593 6.952496 -0.000001 -12.690588 -0.000001 15.551295 -17.881281 2.965667 1.665664 -1.955920 -2.878298 4.727796 -4.170583 4.993920 11.020511 0.000003 -0.000001 12.109032 -3.735708 -2.866779 -0.000000 0.000000 -0.000000 1.291985 -1.928548 -1.498089 14.800111 0.567467 3.865602 14.242553 -1.341734 -6.660649 19.631939 0.143927 -0.648244 50.002754 -0.623565 -6.397812 0.353030 -1.511149 -0.031941 20.222767 3.684305 2.316628 18.787245 0.000005 -0.000001 10.751610 -0.479868 1.397904 -0.000000 0.000000 0.000000 3.273802 0.305947 -0.580111 21.486790 11.830360 2.266131 8.162916 0.000002 0.000000 18.399050 -3.798979 -4.940566 0.000003 0.000001 -0.000001 14.907168 13.034876 -21.971127 -0.343584 -0.626883 35.442623 -18.238499 -5.769814 -9.088904 1.593222 -1.573038 0.652718 0.000000 -0.000000 0.000002 -11.204388 -9.724476 -26.733267 0.357377 0.383928 49.271152 8.148740 -4.184120 -18.242279 -1.449972 1.077834 -0.560174 -0.000000 -0.000000 -0.000001 
